<?xml version="1.0" encoding="UTF-8"?>
<!DOCTYPE svg PUBLIC "-//W3C//DTD SVG 1.1//EN" "http://www.w3.org/Graphics/SVG/1.1/DTD/svg11.dtd">
<!-- Creator: CorelDRAW 2018 (64-Bit) -->
<svg xmlns="http://www.w3.org/2000/svg" xml:space="preserve" width="43.3424mm" height="12.7767mm" version="1.1" style="shape-rendering:geometricPrecision; text-rendering:geometricPrecision; image-rendering:optimizeQuality; fill-rule:evenodd; clip-rule:evenodd"
viewBox="0 0 4277.16 1260.84"
 xmlns:xlink="http://www.w3.org/1999/xlink">
 <defs>
  <style type="text/css">
   <![CDATA[
    .fil0 {fill:#FEFEFE}
   ]]>
  </style>
 </defs>
 <g id="Layer_x0020_1">
  <metadata id="CorelCorpID_0Corel-Layer"/>
  <path class="fil0" d="M-0 368.18l0 3.21 729.77 342.83 732.38 -343.97 0 -0.86 -732.38 -344.03 -729.77 342.83zm263.11 1.62l466.66 -219.24 466.77 219.24 -466.77 219.21 -466.69 -219.21 0.03 0zm466.66 477.58l-729.77 -337.68 0 124.91 729.77 338.49 732.38 -339.67 0 -124.91 -732.38 338.86zm0 253.34l-729.77 -337.75 0 124.88 729.77 338.56 732.38 -339.69 0 -124.91 -732.39 338.91 0.01 0z"/>
  <g id="_2357394666544">
   <path class="fil0" d="M4166.09 629.84c-0.01,-0.55 -0.01,-1.14 -0.01,-1.69 0,-53.32 -20.19,-104.75 -56.44,-143.81 -17.19,-18.46 -38.04,-33.36 -61.08,-43.69 -23.03,-10.34 -48.06,-15.7 -73.33,-15.7 -0.35,0 -0.72,0 -1.08,0 -26.37,0 -51.2,5.22 -74.47,15.69 -23.06,10.32 -43.85,25.19 -61.09,43.68 -36.24,39.09 -56.41,90.49 -56.41,143.82 0,0.57 0,1.16 0,1.73 0,0.53 0,1.15 0,1.7 0,53.32 20.17,104.72 56.41,143.82 17.24,18.44 38.05,33.32 61.09,43.64 23.06,10.34 48.12,15.72 73.41,15.72 0.33,0 0.7,0 1.03,0 26.37,0 51.18,-5.22 74.47,-15.72 23.03,-10.32 43.85,-25.19 61.07,-43.66 36.21,-39.09 56.4,-90.47 56.4,-143.78 0,-0.57 0,-1.18 0,-1.76l0.03 0.01zm111.07 145.54c0,50.45 -9.33,97.2 -27.94,140.29 -17.83,41.93 -44,80.01 -76.79,111.74 -32.56,31.46 -70.76,56.29 -114.57,74.52 -43.82,18.25 -90.55,27.36 -140.18,27.36 -49.61,0 -96.17,-9.11 -139.59,-27.36 -42.34,-17.55 -81.1,-43.09 -113.98,-75.08 -32.69,-32.02 -58.82,-70.29 -76.75,-112.33 -18.61,-43.09 -27.94,-89.46 -27.94,-139.14 0,-48.91 9.5,-94.88 28.51,-137.97 18.35,-42.14 44.65,-80.56 77.32,-112.91 32.75,-32.28 71.55,-58.07 114.03,-75.68 43.19,-18.01 89.63,-27.35 136.46,-27.35 0.65,0 1.29,0 1.94,0 49.64,0 96.34,9.14 140.18,27.36 43.82,18.23 81.99,43.09 114.57,74.52 32.59,31.44 58.17,68.88 76.77,112.32 18.61,43.47 27.94,90.05 27.94,139.72l0.01 0zm-719.48 187.45c-14.35,6.56 -29.37,11.66 -44.77,15.12 -16.66,3.87 -33.95,5.79 -51.75,5.79 -0.3,0.02 -0.64,0.02 -0.93,0.02 -23.87,0 -47.7,-3.36 -70.64,-9.91 -22.04,-6.14 -42.54,-17.08 -59.92,-31.99 -17.05,-14.75 -30.63,-33.95 -40.74,-57.62 -10.06,-23.68 -15.09,-52.22 -15.09,-85.56l0.02 -798.68 170.99 0 0 769.56c0,27.94 5.62,47.15 16.86,57.62 11.23,10.47 24.62,15.72 40.13,15.72 19.37,0 37.99,-5.82 55.83,-17.47l0 137.39 0 0.01zm-359.43 -670.64l-302.45 799.86c-22.48,59.76 -51.96,102.85 -88.41,129.25 -36.45,26.37 -79.89,39.55 -130.29,39.55 -7.76,0 -16.26,-0.57 -25.59,-1.73 -9.01,-1.1 -17.99,-2.88 -26.75,-5.25l-55.83 -156.01c13.04,6.14 26.72,11.06 40.74,14.55 13.94,3.5 27.13,5.25 39.53,5.25 26.37,0 50.39,-6.01 72.12,-18.04 21.72,-12.01 38.38,-34.33 50.02,-66.95l23.26 -67.52 -259.4 -672.93 182.63 0 154.71 433.11 145.43 -433.11 180.28 0 0 -0.03zm-703.77 -101.25l-437.39 0 0 216.56 431.57 -0.01 0 146.68 -431.59 0.01 0 412.12 -176.76 -0.01 0 -930.19 614.2 0 0 154.83 -0.03 0z"/>
  </g>
 </g>
</svg>
